# Blender v2.91.0 OBJ File: ''
# www.blender.org
o uv_sphere_triangulated_Sphere.004
v 0.000000 -0.980785 -0.195090
v 0.137950 0.980785 -0.137950
v 0.270598 0.923880 -0.270598
v 0.392848 0.831470 -0.392847
v 0.500000 0.707107 -0.500000
v 0.587938 0.555570 -0.587938
v 0.653282 0.382683 -0.653281
v 0.693520 0.195090 -0.693520
v 0.707107 0.000000 -0.707107
v 0.693520 -0.195090 -0.693520
v 0.653282 -0.382683 -0.653281
v 0.587938 -0.555570 -0.587938
v 0.500000 -0.707107 -0.500000
v 0.392848 -0.831470 -0.392847
v 0.270598 -0.923880 -0.270598
v 0.137950 -0.980785 -0.137949
v 0.195091 0.980785 0.000000
v 0.382684 0.923880 0.000000
v 0.555571 0.831470 0.000000
v 0.707107 0.707107 0.000000
v 0.831470 0.555570 0.000000
v 0.923880 0.382683 0.000000
v 0.980786 0.195090 0.000000
v 1.000000 0.000000 0.000000
v 0.980786 -0.195090 0.000000
v 0.923880 -0.382683 0.000000
v 0.831470 -0.555570 0.000000
v 0.707107 -0.707107 0.000000
v 0.555571 -0.831470 0.000000
v 0.382684 -0.923880 0.000000
v 0.195090 -0.980785 0.000000
v 0.137950 0.980785 0.137950
v 0.270598 0.923880 0.270599
v 0.392848 0.831470 0.392848
v 0.500000 0.707107 0.500001
v 0.587938 0.555570 0.587938
v 0.653282 0.382683 0.653282
v 0.693520 0.195090 0.693520
v 0.707107 0.000000 0.707107
v 0.693520 -0.195090 0.693520
v 0.653282 -0.382683 0.653282
v 0.587938 -0.555570 0.587938
v 0.500000 -0.707107 0.500001
v 0.392848 -0.831470 0.392848
v 0.270598 -0.923880 0.270599
v 0.137950 -0.980785 0.137950
v 0.000000 0.980785 0.195091
v -0.000000 0.923880 0.382684
v 0.000000 0.831470 0.555571
v -0.000000 0.707107 0.707107
v -0.000000 0.555570 0.831470
v -0.000000 0.382683 0.923880
v -0.000000 0.195090 0.980786
v -0.000000 0.000000 1.000001
v -0.000000 -0.195090 0.980786
v -0.000000 -0.382683 0.923880
v -0.000000 -0.555570 0.831470
v -0.000000 -0.707107 0.707107
v 0.000000 -0.831470 0.555571
v 0.000000 -0.923880 0.382684
v 0.000000 -0.980785 0.195091
v 0.000000 -1.000000 0.000000
v -0.000000 1.000000 0.000001
v -0.137950 0.980785 0.137950
v -0.270598 0.923880 0.270599
v -0.392848 0.831470 0.392848
v -0.500000 0.707107 0.500001
v -0.587938 0.555570 0.587938
v -0.653282 0.382683 0.653282
v -0.693520 0.195090 0.693520
v -0.707107 0.000000 0.707107
v -0.693520 -0.195090 0.693520
v -0.653282 -0.382683 0.653282
v -0.587938 -0.555570 0.587938
v -0.500000 -0.707107 0.500001
v -0.392848 -0.831470 0.392848
v -0.270598 -0.923880 0.270598
v -0.137950 -0.980785 0.137950
v -0.195091 0.980785 0.000000
v -0.382684 0.923880 0.000000
v -0.555571 0.831470 0.000000
v -0.707107 0.707107 0.000000
v -0.831470 0.555570 0.000000
v -0.923880 0.382683 0.000000
v -0.980786 0.195090 0.000000
v -1.000000 0.000000 0.000000
v -0.980786 -0.195090 0.000000
v -0.923880 -0.382683 0.000000
v -0.831470 -0.555570 0.000000
v -0.707107 -0.707107 0.000000
v -0.555570 -0.831470 0.000000
v -0.382684 -0.923880 0.000000
v -0.195090 -0.980785 0.000000
v -0.137950 0.980785 -0.137950
v -0.270598 0.923880 -0.270598
v -0.392848 0.831470 -0.392847
v -0.500000 0.707107 -0.500000
v -0.587938 0.555570 -0.587938
v -0.653282 0.382683 -0.653281
v -0.693520 0.195090 -0.693520
v -0.707107 0.000000 -0.707107
v -0.693520 -0.195090 -0.693520
v -0.653282 -0.382683 -0.653281
v -0.587938 -0.555570 -0.587938
v -0.500000 -0.707107 -0.500000
v -0.392848 -0.831470 -0.392847
v -0.270598 -0.923880 -0.270598
v -0.137950 -0.980785 -0.137949
v 0.000000 0.980785 -0.195090
v -0.000000 0.923880 -0.382683
v -0.000000 0.831470 -0.555570
v -0.000000 0.707107 -0.707107
v -0.000000 0.555570 -0.831470
v -0.000000 0.382683 -0.923880
v -0.000000 0.195090 -0.980785
v -0.000000 0.000000 -1.000000
v -0.000000 -0.195090 -0.980785
v -0.000000 -0.382683 -0.923880
v -0.000000 -0.555570 -0.831470
v -0.000000 -0.707107 -0.707107
v -0.000000 -0.831470 -0.555570
v -0.000000 -0.923880 -0.382683
vt 0.750000 0.812500
vt 0.625000 0.750000
vt 0.750000 0.750000
vt 0.750000 0.312500
vt 0.625000 0.250000
vt 0.750000 0.250000
vt 0.750000 0.687500
vt 0.625000 0.687500
vt 0.625000 0.187500
vt 0.750000 0.187500
vt 0.625000 0.625000
vt 0.750000 0.625000
vt 0.625000 0.125000
vt 0.750000 0.125000
vt 0.625000 0.562500
vt 0.750000 0.562500
vt 0.625000 0.062500
vt 0.750000 0.062500
vt 0.750000 0.500000
vt 0.625000 0.500000
vt 0.750000 0.937500
vt 0.687500 1.000000
vt 0.625000 0.937500
vt 0.687500 0.000000
vt 0.625000 0.437500
vt 0.750000 0.437500
vt 0.750000 0.875000
vt 0.625000 0.875000
vt 0.625000 0.375000
vt 0.750000 0.375000
vt 0.625000 0.812500
vt 0.625000 0.312500
vt 0.500000 0.375000
vt 0.500000 0.812500
vt 0.500000 0.312500
vt 0.500000 0.750000
vt 0.500000 0.250000
vt 0.500000 0.687500
vt 0.500000 0.187500
vt 0.500000 0.625000
vt 0.500000 0.125000
vt 0.500000 0.562500
vt 0.500000 0.062500
vt 0.500000 0.500000
vt 0.562499 1.000000
vt 0.500000 0.937500
vt 0.562500 0.000000
vt 0.500000 0.437500
vt 0.500000 0.875000
vt 0.375000 0.187500
vt 0.375000 0.125000
vt 0.375000 0.562500
vt 0.375000 0.062500
vt 0.375000 0.500000
vt 0.437499 1.000000
vt 0.375000 0.937500
vt 0.437500 0.000000
vt 0.375000 0.437500
vt 0.375000 0.875000
vt 0.375000 0.375000
vt 0.375000 0.812500
vt 0.375000 0.312500
vt 0.375000 0.750000
vt 0.375000 0.250000
vt 0.375000 0.687500
vt 0.375000 0.625000
vt 0.250000 0.312500
vt 0.250000 0.812500
vt 0.250000 0.750000
vt 0.250000 0.250000
vt 0.250000 0.687500
vt 0.250000 0.187500
vt 0.250000 0.625000
vt 0.250000 0.125000
vt 0.250000 0.562500
vt 0.250000 0.062500
vt 0.250000 0.500000
vt 0.312500 1.000000
vt 0.250000 0.937500
vt 0.312500 0.000000
vt 0.250000 0.437500
vt 0.250000 0.875000
vt 0.250000 0.375000
vt 0.125000 0.062500
vt 0.125000 0.500000
vt 0.187500 1.000000
vt 0.125000 0.937500
vt 0.187500 0.000000
vt 0.125000 0.437500
vt 0.125000 0.875000
vt 0.125000 0.375000
vt 0.125000 0.812500
vt 0.125000 0.312500
vt 0.125000 0.750000
vt 0.125000 0.250000
vt 0.125000 0.687500
vt 0.125000 0.187500
vt 0.125000 0.625000
vt 0.125000 0.125000
vt 0.125000 0.562500
vt 0.000000 0.812500
vt 0.000000 0.750000
vt 0.000000 0.250000
vt 0.000000 0.687500
vt 0.000000 0.187500
vt 0.000000 0.625000
vt 0.000000 0.125000
vt 0.000000 0.562500
vt 0.000000 0.062500
vt 0.000000 0.500000
vt 0.062500 1.000000
vt 0.000000 0.937500
vt 0.062500 0.000000
vt 0.000000 0.437500
vt 0.000000 0.875000
vt 0.000000 0.375000
vt 0.000000 0.312500
vt 1.000000 0.500000
vt 0.875000 0.562500
vt 0.875000 0.500000
vt 1.000000 0.937500
vt 0.937500 1.000000
vt 0.875000 0.937500
vt 0.937500 0.000000
vt 1.000000 0.062500
vt 0.875000 0.062500
vt 0.875000 0.437500
vt 1.000000 0.437500
vt 1.000000 0.875000
vt 0.875000 0.875000
vt 0.875000 0.375000
vt 1.000000 0.375000
vt 0.875000 0.812500
vt 1.000000 0.812500
vt 0.875000 0.312500
vt 1.000000 0.312500
vt 1.000000 0.750000
vt 0.875000 0.750000
vt 0.875000 0.250000
vt 1.000000 0.250000
vt 0.875000 0.687500
vt 1.000000 0.687500
vt 0.875000 0.187500
vt 1.000000 0.187500
vt 0.875000 0.625000
vt 1.000000 0.625000
vt 0.875000 0.125000
vt 1.000000 0.125000
vt 1.000000 0.562500
vt 0.812500 1.000000
vt 0.812500 0.000000
vn 0.2541 0.7476 -0.6136
vn 0.3049 -0.6042 -0.7362
vn 0.3049 0.6042 -0.7362
vn 0.2541 -0.7476 -0.6136
vn 0.3431 0.4428 -0.8284
vn 0.1916 -0.8656 -0.4627
vn 0.3685 0.2699 -0.8896
vn 0.1194 -0.9501 -0.2882
vn 0.3811 0.0906 -0.9201
vn 0.0406 0.9944 -0.0979
vn 0.0406 -0.9944 -0.0979
vn 0.3811 -0.0906 -0.9201
vn 0.1194 0.9501 -0.2882
vn 0.3685 -0.2699 -0.8896
vn 0.1916 0.8656 -0.4627
vn 0.3431 -0.4428 -0.8284
vn 0.8896 -0.2699 -0.3685
vn 0.4627 0.8656 -0.1916
vn 0.8284 -0.4428 -0.3431
vn 0.6136 0.7476 -0.2541
vn 0.7362 -0.6042 -0.3049
vn 0.7362 0.6042 -0.3049
vn 0.6136 -0.7476 -0.2541
vn 0.8284 0.4428 -0.3431
vn 0.4627 -0.8656 -0.1916
vn 0.8896 0.2699 -0.3685
vn 0.2882 -0.9501 -0.1194
vn 0.9201 0.0906 -0.3811
vn 0.0979 0.9944 -0.0406
vn 0.0979 -0.9944 -0.0406
vn 0.9201 -0.0906 -0.3811
vn 0.2882 0.9501 -0.1194
vn 0.4627 -0.8656 0.1916
vn 0.8896 0.2699 0.3685
vn 0.2882 -0.9501 0.1194
vn 0.9201 0.0906 0.3811
vn 0.0979 0.9944 0.0406
vn 0.0979 -0.9944 0.0406
vn 0.9201 -0.0906 0.3811
vn 0.2882 0.9501 0.1194
vn 0.8896 -0.2699 0.3685
vn 0.4627 0.8656 0.1916
vn 0.8284 -0.4428 0.3431
vn 0.6136 0.7476 0.2541
vn 0.7362 -0.6042 0.3049
vn 0.7362 0.6042 0.3049
vn 0.6136 -0.7476 0.2541
vn 0.8284 0.4428 0.3431
vn 0.3431 -0.4428 0.8284
vn 0.2541 0.7476 0.6136
vn 0.3049 -0.6042 0.7362
vn 0.3049 0.6042 0.7362
vn 0.2541 -0.7476 0.6136
vn 0.3431 0.4428 0.8284
vn 0.1916 -0.8656 0.4627
vn 0.3685 0.2699 0.8896
vn 0.1194 -0.9501 0.2882
vn 0.3811 0.0906 0.9201
vn 0.0406 0.9944 0.0979
vn 0.0406 -0.9944 0.0979
vn 0.3811 -0.0906 0.9201
vn 0.1194 0.9501 0.2882
vn 0.3685 -0.2699 0.8896
vn 0.1916 0.8656 0.4627
vn -0.1194 -0.9501 0.2882
vn -0.3811 0.0906 0.9201
vn -0.0406 0.9944 0.0979
vn -0.0406 -0.9944 0.0979
vn -0.3811 -0.0906 0.9201
vn -0.1194 0.9501 0.2882
vn -0.3685 -0.2699 0.8896
vn -0.1916 0.8656 0.4627
vn -0.3431 -0.4428 0.8284
vn -0.2541 0.7476 0.6136
vn -0.3049 -0.6042 0.7362
vn -0.3049 0.6042 0.7362
vn -0.2541 -0.7476 0.6136
vn -0.3431 0.4428 0.8284
vn -0.1916 -0.8656 0.4627
vn -0.3685 0.2699 0.8896
vn -0.6136 0.7476 0.2541
vn -0.7362 -0.6042 0.3049
vn -0.7362 0.6042 0.3049
vn -0.6136 -0.7476 0.2541
vn -0.8284 0.4428 0.3431
vn -0.4627 -0.8656 0.1916
vn -0.8896 0.2699 0.3685
vn -0.2882 -0.9501 0.1194
vn -0.9201 0.0906 0.3811
vn -0.0979 0.9944 0.0406
vn -0.0979 -0.9944 0.0406
vn -0.9201 -0.0906 0.3811
vn -0.2882 0.9501 0.1194
vn -0.8896 -0.2699 0.3685
vn -0.4627 0.8656 0.1916
vn -0.8284 -0.4428 0.3431
vn -0.9201 0.0906 -0.3811
vn -0.0979 0.9944 -0.0406
vn -0.0979 -0.9944 -0.0406
vn -0.9201 -0.0906 -0.3811
vn -0.2882 0.9501 -0.1194
vn -0.8896 -0.2699 -0.3685
vn -0.4627 0.8656 -0.1916
vn -0.8284 -0.4428 -0.3431
vn -0.6136 0.7476 -0.2541
vn -0.7362 -0.6042 -0.3049
vn -0.7362 0.6042 -0.3049
vn -0.6136 -0.7476 -0.2541
vn -0.8284 0.4428 -0.3431
vn -0.4627 -0.8656 -0.1916
vn -0.8896 0.2699 -0.3685
vn -0.2882 -0.9501 -0.1194
vn -0.3049 -0.6042 -0.7362
vn -0.3049 0.6042 -0.7362
vn -0.2541 -0.7476 -0.6136
vn -0.3431 0.4428 -0.8284
vn -0.1916 -0.8656 -0.4627
vn -0.3685 0.2699 -0.8896
vn -0.1194 -0.9501 -0.2882
vn -0.3811 0.0906 -0.9201
vn -0.0406 0.9944 -0.0979
vn -0.0406 -0.9944 -0.0979
vn -0.3811 -0.0906 -0.9201
vn -0.1194 0.9501 -0.2882
vn -0.3685 -0.2699 -0.8896
vn -0.1916 0.8656 -0.4627
vn -0.3431 -0.4428 -0.8284
vn -0.2541 0.7476 -0.6136
s off
f 111/1/1 5/2/1 112/3/1
f 119/4/2 13/5/2 120/6/2
f 113/7/3 5/2/3 6/8/3
f 120/6/4 14/9/4 121/10/4
f 113/7/5 7/11/5 114/12/5
f 121/10/6 15/13/6 122/14/6
f 114/12/7 8/15/7 115/16/7
f 122/14/8 16/17/8 1/18/8
f 116/19/9 8/15/9 9/20/9
f 109/21/10 63/22/10 2/23/10
f 62/24/11 1/18/11 16/17/11
f 116/19/12 10/25/12 117/26/12
f 110/27/13 2/23/13 3/28/13
f 117/26/14 11/29/14 118/30/14
f 110/27/15 4/31/15 111/1/15
f 118/30/16 12/32/16 119/4/16
f 10/25/17 26/33/17 11/29/17
f 3/28/18 19/34/18 4/31/18
f 11/29/19 27/35/19 12/32/19
f 5/2/20 19/34/20 20/36/20
f 13/5/21 27/35/21 28/37/21
f 5/2/22 21/38/22 6/8/22
f 14/9/23 28/37/23 29/39/23
f 7/11/24 21/38/24 22/40/24
f 15/13/25 29/39/25 30/41/25
f 7/11/26 23/42/26 8/15/26
f 15/13/27 31/43/27 16/17/27
f 9/20/28 23/42/28 24/44/28
f 2/23/29 63/45/29 17/46/29
f 62/47/30 16/17/30 31/43/30
f 9/20/31 25/48/31 10/25/31
f 2/23/32 18/49/32 3/28/32
f 30/41/33 44/50/33 45/51/33
f 22/40/34 38/52/34 23/42/34
f 31/43/35 45/51/35 46/53/35
f 23/42/36 39/54/36 24/44/36
f 17/46/37 63/55/37 32/56/37
f 62/57/38 31/43/38 46/53/38
f 24/44/39 40/58/39 25/48/39
f 17/46/40 33/59/40 18/49/40
f 26/33/41 40/58/41 41/60/41
f 18/49/42 34/61/42 19/34/42
f 26/33/43 42/62/43 27/35/43
f 19/34/44 35/63/44 20/36/44
f 27/35/45 43/64/45 28/37/45
f 20/36/46 36/65/46 21/38/46
f 28/37/47 44/50/47 29/39/47
f 21/38/48 37/66/48 22/40/48
f 41/60/49 57/67/49 42/62/49
f 35/63/50 49/68/50 50/69/50
f 43/64/51 57/67/51 58/70/51
f 35/63/52 51/71/52 36/65/52
f 43/64/53 59/72/53 44/50/53
f 36/65/54 52/73/54 37/66/54
f 44/50/55 60/74/55 45/51/55
f 37/66/56 53/75/56 38/52/56
f 45/51/57 61/76/57 46/53/57
f 38/52/58 54/77/58 39/54/58
f 32/56/59 63/78/59 47/79/59
f 62/80/60 46/53/60 61/76/60
f 39/54/61 55/81/61 40/58/61
f 33/59/62 47/79/62 48/82/62
f 40/58/63 56/83/63 41/60/63
f 33/59/64 49/68/64 34/61/64
f 60/74/65 78/84/65 61/76/65
f 53/75/66 71/85/66 54/77/66
f 47/79/67 63/86/67 64/87/67
f 62/88/68 61/76/68 78/84/68
f 54/77/69 72/89/69 55/81/69
f 47/79/70 65/90/70 48/82/70
f 55/81/71 73/91/71 56/83/71
f 48/82/72 66/92/72 49/68/72
f 56/83/73 74/93/73 57/67/73
f 50/69/74 66/92/74 67/94/74
f 58/70/75 74/93/75 75/95/75
f 50/69/76 68/96/76 51/71/76
f 58/70/77 76/97/77 59/72/77
f 51/71/78 69/98/78 52/73/78
f 59/72/79 77/99/79 60/74/79
f 52/73/80 70/100/80 53/75/80
f 67/94/81 81/101/81 82/102/81
f 74/93/82 90/103/82 75/95/82
f 67/94/83 83/104/83 68/96/83
f 75/95/84 91/105/84 76/97/84
f 69/98/85 83/104/85 84/106/85
f 76/97/86 92/107/86 77/99/86
f 70/100/87 84/106/87 85/108/87
f 77/99/88 93/109/88 78/84/88
f 70/100/89 86/110/89 71/85/89
f 64/87/90 63/111/90 79/112/90
f 62/113/91 78/84/91 93/109/91
f 71/85/92 87/114/92 72/89/92
f 64/87/93 80/115/93 65/90/93
f 72/89/94 88/116/94 73/91/94
f 65/90/95 81/101/95 66/92/95
f 73/91/96 89/117/96 74/93/96
f 86/118/97 100/119/97 101/120/97
f 79/121/98 63/122/98 94/123/98
f 62/124/99 93/125/99 108/126/99
f 86/118/100 102/127/100 87/128/100
f 80/129/101 94/123/101 95/130/101
f 87/128/102 103/131/102 88/132/102
f 80/129/103 96/133/103 81/134/103
f 88/132/104 104/135/104 89/136/104
f 82/137/105 96/133/105 97/138/105
f 89/136/106 105/139/106 90/140/106
f 82/137/107 98/141/107 83/142/107
f 90/140/108 106/143/108 91/144/108
f 83/142/109 99/145/109 84/146/109
f 91/144/110 107/147/110 92/148/110
f 84/146/111 100/119/111 85/149/111
f 92/148/112 108/126/112 93/125/112
f 104/135/113 120/6/113 105/139/113
f 98/141/114 112/3/114 113/7/114
f 105/139/115 121/10/115 106/143/115
f 98/141/116 114/12/116 99/145/116
f 107/147/117 121/10/117 122/14/117
f 99/145/118 115/16/118 100/119/118
f 107/147/119 1/18/119 108/126/119
f 100/119/120 116/19/120 101/120/120
f 94/123/121 63/150/121 109/21/121
f 62/151/122 108/126/122 1/18/122
f 101/120/123 117/26/123 102/127/123
f 94/123/124 110/27/124 95/130/124
f 102/127/125 118/30/125 103/131/125
f 95/130/126 111/1/126 96/133/126
f 103/131/127 119/4/127 104/135/127
f 96/133/128 112/3/128 97/138/128
f 111/1/1 4/31/1 5/2/1
f 119/4/2 12/32/2 13/5/2
f 113/7/3 112/3/3 5/2/3
f 120/6/4 13/5/4 14/9/4
f 113/7/5 6/8/5 7/11/5
f 121/10/6 14/9/6 15/13/6
f 114/12/7 7/11/7 8/15/7
f 122/14/8 15/13/8 16/17/8
f 116/19/9 115/16/9 8/15/9
f 116/19/12 9/20/12 10/25/12
f 110/27/13 109/21/13 2/23/13
f 117/26/14 10/25/14 11/29/14
f 110/27/15 3/28/15 4/31/15
f 118/30/16 11/29/16 12/32/16
f 10/25/17 25/48/17 26/33/17
f 3/28/18 18/49/18 19/34/18
f 11/29/19 26/33/19 27/35/19
f 5/2/20 4/31/20 19/34/20
f 13/5/21 12/32/21 27/35/21
f 5/2/22 20/36/22 21/38/22
f 14/9/23 13/5/23 28/37/23
f 7/11/24 6/8/24 21/38/24
f 15/13/25 14/9/25 29/39/25
f 7/11/26 22/40/26 23/42/26
f 15/13/27 30/41/27 31/43/27
f 9/20/28 8/15/28 23/42/28
f 9/20/31 24/44/31 25/48/31
f 2/23/32 17/46/32 18/49/32
f 30/41/33 29/39/33 44/50/33
f 22/40/34 37/66/34 38/52/34
f 31/43/35 30/41/35 45/51/35
f 23/42/36 38/52/36 39/54/36
f 24/44/39 39/54/39 40/58/39
f 17/46/40 32/56/40 33/59/40
f 26/33/41 25/48/41 40/58/41
f 18/49/42 33/59/42 34/61/42
f 26/33/43 41/60/43 42/62/43
f 19/34/44 34/61/44 35/63/44
f 27/35/45 42/62/45 43/64/45
f 20/36/46 35/63/46 36/65/46
f 28/37/47 43/64/47 44/50/47
f 21/38/48 36/65/48 37/66/48
f 41/60/49 56/83/49 57/67/49
f 35/63/50 34/61/50 49/68/50
f 43/64/51 42/62/51 57/67/51
f 35/63/52 50/69/52 51/71/52
f 43/64/53 58/70/53 59/72/53
f 36/65/54 51/71/54 52/73/54
f 44/50/55 59/72/55 60/74/55
f 37/66/56 52/73/56 53/75/56
f 45/51/57 60/74/57 61/76/57
f 38/52/58 53/75/58 54/77/58
f 39/54/61 54/77/61 55/81/61
f 33/59/62 32/56/62 47/79/62
f 40/58/63 55/81/63 56/83/63
f 33/59/64 48/82/64 49/68/64
f 60/74/65 77/99/65 78/84/65
f 53/75/66 70/100/66 71/85/66
f 54/77/69 71/85/69 72/89/69
f 47/79/70 64/87/70 65/90/70
f 55/81/71 72/89/71 73/91/71
f 48/82/72 65/90/72 66/92/72
f 56/83/73 73/91/73 74/93/73
f 50/69/74 49/68/74 66/92/74
f 58/70/75 57/67/75 74/93/75
f 50/69/76 67/94/76 68/96/76
f 58/70/77 75/95/77 76/97/77
f 51/71/78 68/96/78 69/98/78
f 59/72/79 76/97/79 77/99/79
f 52/73/80 69/98/80 70/100/80
f 67/94/81 66/92/81 81/101/81
f 74/93/82 89/117/82 90/103/82
f 67/94/83 82/102/83 83/104/83
f 75/95/84 90/103/84 91/105/84
f 69/98/85 68/96/85 83/104/85
f 76/97/86 91/105/86 92/107/86
f 70/100/87 69/98/87 84/106/87
f 77/99/88 92/107/88 93/109/88
f 70/100/89 85/108/89 86/110/89
f 71/85/92 86/110/92 87/114/92
f 64/87/93 79/112/93 80/115/93
f 72/89/94 87/114/94 88/116/94
f 65/90/95 80/115/95 81/101/95
f 73/91/96 88/116/96 89/117/96
f 86/118/97 85/149/97 100/119/97
f 86/118/100 101/120/100 102/127/100
f 80/129/101 79/121/101 94/123/101
f 87/128/102 102/127/102 103/131/102
f 80/129/103 95/130/103 96/133/103
f 88/132/104 103/131/104 104/135/104
f 82/137/105 81/134/105 96/133/105
f 89/136/106 104/135/106 105/139/106
f 82/137/107 97/138/107 98/141/107
f 90/140/108 105/139/108 106/143/108
f 83/142/109 98/141/109 99/145/109
f 91/144/110 106/143/110 107/147/110
f 84/146/111 99/145/111 100/119/111
f 92/148/112 107/147/112 108/126/112
f 104/135/113 119/4/113 120/6/113
f 98/141/114 97/138/114 112/3/114
f 105/139/115 120/6/115 121/10/115
f 98/141/116 113/7/116 114/12/116
f 107/147/117 106/143/117 121/10/117
f 99/145/118 114/12/118 115/16/118
f 107/147/119 122/14/119 1/18/119
f 100/119/120 115/16/120 116/19/120
f 101/120/123 116/19/123 117/26/123
f 94/123/124 109/21/124 110/27/124
f 102/127/125 117/26/125 118/30/125
f 95/130/126 110/27/126 111/1/126
f 103/131/127 118/30/127 119/4/127
f 96/133/128 111/1/128 112/3/128
