# Blender v2.83.5 OBJ File: ''
# www.blender.org
mtllib deformed sphere triangulated.mtl
o Cube
v 0.500000 0.500000 -0.500000
v 0.500000 -0.500000 -0.500000
v 0.500000 0.500000 0.500000
v 0.500000 -0.500000 0.500000
v -0.500000 0.500000 -0.500000
v -0.500000 -0.500000 -0.500000
v -0.500000 0.500000 0.500000
v -0.500000 -0.500000 0.500000
v -0.572933 -0.572933 -0.296650
v -0.609568 -0.609568 -0.000000
v -0.572933 -0.572933 0.296650
v 0.296650 -0.572933 -0.572933
v 0.000000 -0.609568 -0.609568
v -0.296650 -0.572933 -0.572933
v 0.572933 0.296650 -0.713507
v 0.609568 0.000000 -0.609568
v 0.572933 -0.296650 -0.572933
v -0.572933 -0.296650 0.572933
v -0.609568 -0.000000 0.609568
v -0.572933 0.296650 0.572933
v 0.572933 0.296650 0.572933
v 0.609568 0.000000 0.609568
v 0.572933 -0.296650 0.572933
v -0.572933 0.296650 -0.572933
v -0.609568 -0.000000 -0.609568
v -0.572933 -0.296650 -0.572933
v 0.296650 0.572933 0.572933
v -0.000000 0.609568 0.609568
v -0.296650 0.572933 0.572933
v 0.572933 0.572933 -0.296650
v 0.609568 0.609568 0.000000
v 0.572933 0.572933 0.296650
v -0.296650 -0.572933 0.572933
v -0.000000 -0.609568 0.609568
v 0.296650 -0.572933 0.572933
v -0.572933 0.572933 0.296650
v -0.609568 0.609568 -0.000000
v -0.572933 0.572933 -0.296650
v -0.296650 0.572933 -0.572933
v 0.000000 0.609568 -0.609568
v 0.296650 0.572933 -0.572933
v 0.572933 -0.572933 0.296650
v 0.609568 -0.609568 0.000000
v 0.572933 -0.572933 -0.296650
v 0.316157 0.728990 -0.316157
v 0.000000 0.781829 -0.333140
v -0.316157 0.728990 -0.316157
v 0.333140 0.781829 0.000000
v -0.000000 0.942104 -0.000000
v -0.333140 0.781829 -0.000000
v 0.316157 0.728990 0.316157
v -0.000000 0.781829 0.333140
v -0.316157 0.728990 0.316157
v 0.316157 -0.316157 0.728990
v 0.333140 -0.000000 0.781829
v 0.090094 0.316157 0.728990
v -0.000000 -0.333140 0.781829
v 0.000000 0.000000 0.839506
v 0.000000 0.333140 0.781829
v -0.316157 -0.316157 0.728990
v -0.333140 0.000000 0.781829
v -0.316157 0.316157 0.728990
v -0.728990 -0.316157 0.316157
v -0.781829 -0.000000 0.333140
v -0.728990 0.316157 0.316157
v -0.781829 -0.333140 -0.000000
v -0.839506 0.000000 -0.000000
v -0.781829 0.333140 0.000000
v -0.728990 -0.316157 -0.316157
v -0.781829 0.000000 -0.333140
v -0.728990 0.316157 -0.316157
v -0.316157 -0.728990 -0.316157
v -0.000000 -0.781829 -0.333140
v 0.316157 -0.728990 -0.316157
v -0.333140 -0.781829 0.000000
v 0.000000 -0.839506 0.000000
v 0.333140 -0.781829 -0.000000
v -0.316157 -0.728990 0.316157
v 0.000000 -0.781829 0.333140
v 0.316157 -0.728990 0.316157
v 0.728990 -0.316157 -0.316157
v 0.781829 -0.000000 -0.333140
v 0.728990 0.316157 -0.316157
v 0.781829 -0.333140 0.000000
v 0.839506 0.000000 -0.000000
v 0.781829 0.333140 -0.000000
v 0.728990 -0.316157 0.316157
v 0.781829 0.000000 0.333140
v 0.728990 0.316157 0.316157
v -0.316157 -0.316157 -0.728990
v -0.333140 -0.000000 -0.781829
v -0.316157 0.316157 -0.728990
v -0.018479 -0.357791 -0.878343
v 0.000000 0.000000 -0.839506
v -0.000000 0.333140 -0.781829
v 0.316157 -0.316157 -0.728990
v 0.333140 0.000000 -0.781829
v 0.316157 0.316157 -0.728990
vt 0.752821 0.559896
vt 0.692491 0.625000
vt 0.696045 0.554579
vt 0.812717 0.625000
vt 0.751736 0.625000
vt 0.752821 0.690104
vt 0.696045 0.695421
vt 0.666667 0.458333
vt 0.637912 0.550456
vt 0.705078 0.482422
vt 0.813151 0.499349
vt 0.755208 0.494792
vt 0.875000 0.500000
vt 0.812853 0.562174
vt 0.875000 0.562500
vt 0.875000 0.687500
vt 0.812853 0.687826
vt 0.875000 0.750000
vt 0.813151 0.750651
vt 0.755208 0.755208
vt 0.705078 0.767578
vt 0.666667 0.791667
vt 0.637912 0.699544
vt 0.631945 0.625000
vt 0.429579 0.821045
vt 0.500000 0.876736
vt 0.434896 0.877821
vt 0.570421 0.821045
vt 0.500000 0.817491
vt 0.437174 0.937853
vt 0.562826 0.937853
vt 0.500000 0.937717
vt 0.333333 0.791667
vt 0.357422 0.830078
vt 0.425456 0.762912
vt 0.574544 0.762912
vt 0.500000 0.756944
vt 0.642578 0.830078
vt 0.630208 0.880208
vt 0.565104 0.877821
vt 0.625651 0.938151
vt 0.625000 1.000000
vt 0.562500 1.000000
vt 0.500000 1.000000
vt 0.437500 1.000000
vt 0.375000 1.000000
vt 0.374349 0.938151
vt 0.369792 0.880208
vt 0.437500 0.062500
vt 0.500000 0.125000
vt 0.437500 0.125000
vt 0.562500 0.062500
vt 0.500000 0.062500
vt 0.437500 0.187500
vt 0.562500 0.187500
vt 0.500000 0.187500
vt 0.375000 0.000000
vt 0.375000 0.062500
vt 0.437500 0.000000
vt 0.562500 0.000000
vt 0.500000 0.000000
vt 0.625000 0.000000
vt 0.625000 0.062500
vt 0.562500 0.125000
vt 0.625000 0.187500
vt 0.625000 0.250000
vt 0.562500 0.250000
vt 0.500000 0.250000
vt 0.437500 0.250000
vt 0.375000 0.250000
vt 0.375000 0.187500
vt 0.375000 0.125000
vt 0.187147 0.562174
vt 0.248264 0.625000
vt 0.187283 0.625000
vt 0.303955 0.554579
vt 0.247179 0.559896
vt 0.187147 0.687826
vt 0.303955 0.695421
vt 0.247179 0.690104
vt 0.125000 0.500000
vt 0.125000 0.562500
vt 0.186849 0.499349
vt 0.294922 0.482422
vt 0.244792 0.494792
vt 0.333333 0.458333
vt 0.362088 0.550456
vt 0.307509 0.625000
vt 0.362088 0.699544
vt 0.294922 0.767578
vt 0.244792 0.755208
vt 0.186849 0.750651
vt 0.125000 0.750000
vt 0.125000 0.687500
vt 0.125000 0.625000
vt 0.429742 0.554742
vt 0.500000 0.625000
vt 0.432726 0.625000
vt 0.570258 0.554742
vt 0.500000 0.557726
vt 0.429742 0.695258
vt 0.570258 0.695258
vt 0.500000 0.692274
vt 0.425456 0.487088
vt 0.500000 0.493056
vt 0.574544 0.487088
vt 0.567274 0.625000
vt 0.368056 0.625000
vt 0.437174 0.312147
vt 0.500000 0.373264
vt 0.434896 0.372179
vt 0.562826 0.312147
vt 0.500000 0.312283
vt 0.429579 0.428955
vt 0.570421 0.428955
vt 0.500000 0.432509
vt 0.374349 0.311849
vt 0.625651 0.311849
vt 0.565104 0.372179
vt 0.642578 0.419922
vt 0.357422 0.419922
vt 0.369792 0.369792
vt 0.875000 0.625000
vt 0.625000 0.125000
vt 0.630208 0.369792
vn 0.1714 0.9702 -0.1714
vn -0.3978 0.8268 -0.3978
vn 0.1714 0.9702 0.1714
vn -0.3978 0.8268 0.3978
vn 0.4896 0.7501 -0.4446
vn 0.1678 0.8367 -0.5213
vn -0.1677 0.8367 -0.5214
vn -0.4446 0.7501 -0.4896
vn -0.5213 0.8367 -0.1678
vn -0.5213 0.8367 0.1678
vn -0.4446 0.7501 0.4896
vn -0.1677 0.8367 0.5214
vn 0.1678 0.8367 0.5213
vn 0.4896 0.7501 0.4446
vn 0.5214 0.8367 0.1677
vn 0.5214 0.8367 -0.1677
vn 0.1713 -0.1681 0.9708
vn 0.1636 0.2837 0.9449
vn -0.1713 -0.1681 0.9708
vn -0.1681 0.1713 0.9708
vn 0.4446 -0.4896 0.7501
vn 0.5213 -0.1678 0.8367
vn 0.5214 0.1677 0.8367
vn 0.3041 0.3041 0.9028
vn 0.5129 0.4540 0.7286
vn -0.1678 0.5213 0.8367
vn -0.4896 0.4446 0.7501
vn -0.5214 0.1677 0.8367
vn -0.5213 -0.1678 0.8367
vn -0.4446 -0.4896 0.7501
vn -0.1677 -0.5214 0.8367
vn 0.1677 -0.5214 0.8367
vn -0.9708 -0.1681 0.1713
vn -0.9708 0.1713 0.1681
vn -0.9708 -0.1681 -0.1713
vn -0.9708 0.1713 -0.1681
vn -0.7501 -0.4896 0.4446
vn -0.8367 -0.1678 0.5213
vn -0.8367 0.1677 0.5214
vn -0.7501 0.4446 0.4896
vn -0.8367 0.5213 0.1678
vn -0.8367 0.5213 -0.1678
vn -0.7501 0.4446 -0.4896
vn -0.8367 0.1677 -0.5214
vn -0.8367 -0.1678 -0.5213
vn -0.7501 -0.4896 -0.4446
vn -0.8367 -0.5214 -0.1677
vn -0.8367 -0.5214 0.1677
vn -0.1681 -0.9708 -0.1713
vn 0.1713 -0.9708 -0.1681
vn -0.1681 -0.9708 0.1713
vn 0.1713 -0.9708 0.1681
vn -0.4896 -0.7501 -0.4446
vn -0.1678 -0.8367 -0.5213
vn 0.1677 -0.8367 -0.5214
vn 0.4446 -0.7501 -0.4896
vn 0.5213 -0.8367 -0.1678
vn 0.5213 -0.8367 0.1678
vn 0.4446 -0.7501 0.4896
vn 0.1677 -0.8367 0.5214
vn -0.1678 -0.8367 0.5213
vn -0.4896 -0.7501 0.4446
vn -0.5214 -0.8367 0.1677
vn -0.5214 -0.8367 -0.1677
vn 0.9708 -0.1681 -0.1713
vn 0.9708 0.1713 -0.1681
vn 0.9708 -0.1681 0.1713
vn 0.9708 0.1713 0.1681
vn 0.7501 -0.4896 -0.4446
vn 0.8367 -0.1678 -0.5213
vn 0.8367 0.1678 -0.5214
vn 0.7356 0.5980 -0.3183
vn 0.8367 0.5213 -0.1678
vn 0.8367 0.5213 0.1678
vn 0.7501 0.4446 0.4896
vn 0.8367 0.1677 0.5214
vn 0.8367 -0.1678 0.5213
vn 0.7501 -0.4896 0.4446
vn 0.8367 -0.5214 0.1677
vn 0.8367 -0.5214 -0.1677
vn -0.4319 0.1193 -0.8940
vn -0.1681 0.1713 -0.9708
vn 0.3981 0.0786 -0.9140
vn 0.1681 0.1713 -0.9708
vn -0.4446 -0.4896 -0.7501
vn -0.5213 -0.1678 -0.8367
vn -0.5214 0.1677 -0.8367
vn -0.4896 0.4446 -0.7501
vn -0.1678 0.5213 -0.8367
vn 0.1678 0.5213 -0.8367
vn 0.0963 0.7370 -0.6690
vn 0.5152 -0.2260 -0.8267
vn 0.5213 -0.1678 -0.8367
vn 0.4446 -0.4896 -0.7501
vn 0.1720 -0.7130 -0.6797
vn -0.1719 -0.7248 -0.6672
vn 0.3978 0.8268 -0.3978
vn -0.1714 0.9702 -0.1714
vn 0.3978 0.8268 0.3978
vn -0.1714 0.9702 0.1714
vn 0.4446 0.7501 -0.4896
vn 0.1677 0.8367 -0.5214
vn -0.1678 0.8367 -0.5213
vn -0.4896 0.7501 -0.4446
vn -0.5214 0.8367 -0.1677
vn -0.5214 0.8367 0.1677
vn -0.4896 0.7501 0.4446
vn -0.1678 0.8367 0.5213
vn 0.1677 0.8367 0.5214
vn 0.4446 0.7501 0.4896
vn 0.5213 0.8367 0.1678
vn 0.5213 0.8367 -0.1678
vn 0.1681 -0.1713 0.9708
vn 0.5208 0.1456 0.8412
vn -0.1681 -0.1713 0.9708
vn -0.1713 0.1681 0.9708
vn 0.4896 -0.4446 0.7501
vn 0.5214 -0.1677 0.8367
vn 0.2987 0.3762 0.8771
vn 0.4386 0.4386 0.7844
vn 0.1618 0.4142 0.8957
vn -0.1677 0.5214 0.8367
vn -0.4446 0.4896 0.7501
vn -0.5213 0.1678 0.8367
vn -0.5214 -0.1677 0.8367
vn -0.4896 -0.4446 0.7501
vn -0.1678 -0.5213 0.8367
vn 0.1678 -0.5213 0.8367
vn -0.9708 -0.1713 0.1681
vn -0.9708 0.1681 0.1713
vn -0.9708 -0.1713 -0.1681
vn -0.9708 0.1681 -0.1713
vn -0.7501 -0.4446 0.4896
vn -0.8367 -0.1677 0.5214
vn -0.8367 0.1678 0.5213
vn -0.7501 0.4896 0.4446
vn -0.8367 0.5214 0.1677
vn -0.8367 0.5214 -0.1677
vn -0.7501 0.4896 -0.4446
vn -0.8367 0.1678 -0.5213
vn -0.8367 -0.1677 -0.5214
vn -0.7501 -0.4446 -0.4896
vn -0.8367 -0.5213 -0.1678
vn -0.8367 -0.5213 0.1678
vn -0.1713 -0.9708 -0.1681
vn 0.1681 -0.9708 -0.1713
vn -0.1713 -0.9708 0.1681
vn 0.1681 -0.9708 0.1713
vn -0.4446 -0.7501 -0.4896
vn -0.1677 -0.8367 -0.5214
vn 0.1678 -0.8367 -0.5213
vn 0.4896 -0.7501 -0.4446
vn 0.5214 -0.8367 -0.1677
vn 0.5214 -0.8367 0.1677
vn 0.4896 -0.7501 0.4446
vn 0.1678 -0.8367 0.5213
vn -0.1677 -0.8367 0.5214
vn -0.4446 -0.7501 0.4896
vn -0.5213 -0.8367 0.1678
vn -0.5213 -0.8367 -0.1678
vn 0.9708 -0.1713 -0.1681
vn 0.9708 0.1681 -0.1713
vn 0.9708 -0.1713 0.1681
vn 0.9708 0.1681 0.1713
vn 0.7501 -0.4446 -0.4896
vn 0.8367 -0.1677 -0.5214
vn 0.9309 -0.0129 -0.3650
vn 0.7501 0.4896 -0.4446
vn 0.8367 0.5214 -0.1677
vn 0.8367 0.5214 0.1677
vn 0.7501 0.4896 0.4446
vn 0.8367 0.1678 0.5213
vn 0.8367 -0.1677 0.5214
vn 0.7501 -0.4446 0.4896
vn 0.8367 -0.5213 0.1678
vn 0.8367 -0.5213 -0.1678
vn -0.1681 -0.1713 -0.9708
vn -0.1713 0.1681 -0.9708
vn 0.1681 -0.1713 -0.9708
vn 0.1713 0.1681 -0.9708
vn -0.4896 -0.4446 -0.7501
vn -0.5214 -0.1677 -0.8367
vn -0.5213 0.1678 -0.8367
vn -0.4446 0.4896 -0.7501
vn -0.1677 0.5214 -0.8367
vn 0.1677 0.5214 -0.8367
vn 0.4446 0.4896 -0.7501
vn 0.0721 0.1682 -0.9831
vn 0.5214 -0.1677 -0.8367
vn 0.4896 -0.4446 -0.7501
vn 0.4044 -0.4972 -0.7676
vn -0.4448 -0.4896 -0.7500
usemtl Material
s off
f 46/1/1 48/2/1 45/3/1
f 46/1/2 50/4/2 49/5/2
f 48/2/3 52/6/3 51/7/3
f 50/4/4 52/6/4 49/5/4
f 1/8/5 45/3/5 30/9/5
f 41/10/6 46/1/6 45/3/6
f 39/11/7 46/1/7 40/12/7
f 5/13/8 47/14/8 39/11/8
f 38/15/9 50/4/9 47/14/9
f 50/4/10 36/16/10 53/17/10
f 53/17/11 7/18/11 29/19/11
f 52/6/12 29/19/12 28/20/12
f 52/6/13 27/21/13 51/7/13
f 51/7/14 3/22/14 32/23/14
f 48/2/15 32/23/15 31/24/15
f 30/9/16 48/2/16 31/24/16
f 54/25/17 58/26/17 57/27/17
f 56/28/18 58/26/18 55/29/18
f 58/26/19 60/30/19 57/27/19
f 58/26/20 62/31/20 61/32/20
f 4/33/21 54/25/21 35/34/21
f 23/35/22 55/29/22 54/25/22
f 21/36/23 55/29/23 22/37/23
f 21/36/24 27/38/24 56/28/24
f 56/28/25 28/39/25 59/40/25
f 59/40/26 29/41/26 62/31/26
f 62/31/27 7/42/27 20/43/27
f 61/32/28 20/43/28 19/44/28
f 61/32/29 18/45/29 60/30/29
f 60/30/30 8/46/30 33/47/30
f 57/27/31 33/47/31 34/48/31
f 35/34/32 57/27/32 34/48/32
f 63/49/33 67/50/33 66/51/33
f 65/52/34 67/50/34 64/53/34
f 67/50/35 69/54/35 66/51/35
f 67/50/36 71/55/36 70/56/36
f 8/57/37 63/49/37 11/58/37
f 18/59/38 64/53/38 63/49/38
f 20/60/39 64/53/39 19/61/39
f 7/62/40 65/52/40 20/60/40
f 36/63/41 68/64/41 65/52/41
f 68/64/42 38/65/42 71/55/42
f 71/55/43 5/66/43 24/67/43
f 70/56/44 24/67/44 25/68/44
f 70/56/45 26/69/45 69/54/45
f 69/54/46 6/70/46 9/71/46
f 66/51/47 9/71/47 10/72/47
f 11/58/48 66/51/48 10/72/48
f 72/73/49 76/74/49 75/75/49
f 74/76/50 76/74/50 73/77/50
f 76/74/51 78/78/51 75/75/51
f 76/74/52 80/79/52 79/80/52
f 6/81/53 72/73/53 9/82/53
f 14/83/54 73/77/54 72/73/54
f 12/84/55 73/77/55 13/85/55
f 2/86/56 74/76/56 12/84/56
f 44/87/57 77/88/57 74/76/57
f 77/88/58 42/89/58 80/79/58
f 80/79/59 4/33/59 35/90/59
f 79/80/60 35/90/60 34/91/60
f 79/80/61 33/92/61 78/78/61
f 78/78/62 8/93/62 11/94/62
f 75/75/63 11/94/63 10/95/63
f 9/82/64 75/75/64 10/95/64
f 81/96/65 85/97/65 84/98/65
f 83/99/66 85/97/66 82/100/66
f 85/97/67 87/101/67 84/98/67
f 85/97/68 89/102/68 88/103/68
f 2/86/69 81/96/69 44/87/69
f 17/104/70 82/100/70 81/96/70
f 16/105/71 83/99/71 82/100/71
f 1/8/72 83/99/72 15/106/72
f 30/9/73 86/107/73 83/99/73
f 86/107/74 32/23/74 89/102/74
f 89/102/75 3/22/75 21/36/75
f 88/103/76 21/36/76 22/37/76
f 88/103/77 23/35/77 87/101/77
f 87/101/78 4/33/78 42/89/78
f 84/98/79 42/89/79 43/108/79
f 44/87/80 84/98/80 43/108/80
f 90/109/81 94/110/81 93/111/81
f 92/112/82 94/110/82 91/113/82
f 94/110/83 96/114/83 93/111/83
f 94/110/84 98/115/84 97/116/84
f 6/70/85 90/109/85 14/117/85
f 26/69/86 91/113/86 90/109/86
f 24/67/87 91/113/87 25/68/87
f 5/66/88 92/112/88 24/67/88
f 39/118/89 95/119/89 92/112/89
f 95/119/90 41/120/90 98/115/90
f 98/115/91 1/8/91 15/106/91
f 97/116/92 15/106/92 16/105/92
f 97/116/93 17/104/93 96/114/93
f 96/114/94 2/86/94 12/121/94
f 93/111/95 12/121/95 13/122/95
f 14/117/96 93/111/96 13/122/96
f 46/1/97 49/5/97 48/2/97
f 46/1/98 47/14/98 50/4/98
f 48/2/99 49/5/99 52/6/99
f 50/4/100 53/17/100 52/6/100
f 1/8/101 41/10/101 45/3/101
f 41/10/102 40/12/102 46/1/102
f 39/11/103 47/14/103 46/1/103
f 5/13/104 38/15/104 47/14/104
f 38/15/105 37/123/105 50/4/105
f 50/4/106 37/123/106 36/16/106
f 53/17/107 36/16/107 7/18/107
f 52/6/108 53/17/108 29/19/108
f 52/6/109 28/20/109 27/21/109
f 51/7/110 27/21/110 3/22/110
f 48/2/111 51/7/111 32/23/111
f 30/9/112 45/3/112 48/2/112
f 54/25/113 55/29/113 58/26/113
f 56/28/114 59/40/114 58/26/114
f 58/26/115 61/32/115 60/30/115
f 58/26/116 59/40/116 62/31/116
f 4/33/117 23/35/117 54/25/117
f 23/35/118 22/37/118 55/29/118
f 21/36/119 56/28/119 55/29/119
f 21/36/120 3/22/120 27/38/120
f 56/28/121 27/38/121 28/39/121
f 59/40/122 28/39/122 29/41/122
f 62/31/123 29/41/123 7/42/123
f 61/32/124 62/31/124 20/43/124
f 61/32/125 19/44/125 18/45/125
f 60/30/126 18/45/126 8/46/126
f 57/27/127 60/30/127 33/47/127
f 35/34/128 54/25/128 57/27/128
f 63/49/129 64/53/129 67/50/129
f 65/52/130 68/64/130 67/50/130
f 67/50/131 70/56/131 69/54/131
f 67/50/132 68/64/132 71/55/132
f 8/57/133 18/59/133 63/49/133
f 18/59/134 19/61/134 64/53/134
f 20/60/135 65/52/135 64/53/135
f 7/62/136 36/63/136 65/52/136
f 36/63/137 37/124/137 68/64/137
f 68/64/138 37/124/138 38/65/138
f 71/55/139 38/65/139 5/66/139
f 70/56/140 71/55/140 24/67/140
f 70/56/141 25/68/141 26/69/141
f 69/54/142 26/69/142 6/70/142
f 66/51/143 69/54/143 9/71/143
f 11/58/144 63/49/144 66/51/144
f 72/73/145 73/77/145 76/74/145
f 74/76/146 77/88/146 76/74/146
f 76/74/147 79/80/147 78/78/147
f 76/74/148 77/88/148 80/79/148
f 6/81/149 14/83/149 72/73/149
f 14/83/150 13/85/150 73/77/150
f 12/84/151 74/76/151 73/77/151
f 2/86/152 44/87/152 74/76/152
f 44/87/153 43/108/153 77/88/153
f 77/88/154 43/108/154 42/89/154
f 80/79/155 42/89/155 4/33/155
f 79/80/156 80/79/156 35/90/156
f 79/80/157 34/91/157 33/92/157
f 78/78/158 33/92/158 8/93/158
f 75/75/159 78/78/159 11/94/159
f 9/82/160 72/73/160 75/75/160
f 81/96/161 82/100/161 85/97/161
f 83/99/162 86/107/162 85/97/162
f 85/97/163 88/103/163 87/101/163
f 85/97/164 86/107/164 89/102/164
f 2/86/165 17/104/165 81/96/165
f 17/104/166 16/105/166 82/100/166
f 16/105/167 15/106/167 83/99/167
f 1/8/168 30/9/168 83/99/168
f 30/9/169 31/24/169 86/107/169
f 86/107/170 31/24/170 32/23/170
f 89/102/171 32/23/171 3/22/171
f 88/103/172 89/102/172 21/36/172
f 88/103/173 22/37/173 23/35/173
f 87/101/174 23/35/174 4/33/174
f 84/98/175 87/101/175 42/89/175
f 44/87/176 81/96/176 84/98/176
f 90/109/177 91/113/177 94/110/177
f 92/112/178 95/119/178 94/110/178
f 94/110/179 97/116/179 96/114/179
f 94/110/180 95/119/180 98/115/180
f 6/70/181 26/69/181 90/109/181
f 26/69/182 25/68/182 91/113/182
f 24/67/183 92/112/183 91/113/183
f 5/66/184 39/118/184 92/112/184
f 39/118/185 40/125/185 95/119/185
f 95/119/186 40/125/186 41/120/186
f 98/115/187 41/120/187 1/8/187
f 97/116/188 98/115/188 15/106/188
f 97/116/189 16/105/189 17/104/189
f 96/114/190 17/104/190 2/86/190
f 93/111/191 96/114/191 12/121/191
f 14/117/192 90/109/192 93/111/192
