v 0.000000 -0.980785 -0.195090
v 0.137950 0.980785 -0.137950
v 0.270598 0.923880 -0.270598
v 0.392848 0.831470 -0.392847
v 0.500000 0.707107 -0.500000
v 0.587938 0.555570 -0.587938
v 0.653282 0.382683 -0.653281
v 0.693520 0.195090 -0.693520
v 0.707107 0.000000 -0.707107
v 0.693520 -0.195090 -0.693520
v 0.653282 -0.382683 -0.653281
v 0.587938 -0.555570 -0.587938
v 0.500000 -0.707107 -0.500000
v 0.392848 -0.831470 -0.392847
v 0.270598 -0.923880 -0.270598
v 0.137950 -0.980785 -0.137949
v 0.195091 0.980785 0.000000
v 0.382684 0.923880 0.000000
v 0.555571 0.831470 0.000000
v 0.707107 0.707107 0.000000
v 0.831470 0.555570 0.000000
v 0.923880 0.382683 0.000000
v 0.980786 0.195090 0.000000
v 1.000000 0.000000 0.000000
v 0.980786 -0.195090 0.000000
v 0.923880 -0.382683 0.000000
v 0.831470 -0.555570 0.000000
v 0.707107 -0.707107 0.000000
v 0.555571 -0.831470 0.000000
v 0.382684 -0.923880 0.000000
v 0.195090 -0.980785 0.000000
v 0.137950 0.980785 0.137950
v 0.270598 0.923880 0.270599
v 0.392848 0.831470 0.392848
v 0.500000 0.707107 0.500001
v 0.587938 0.555570 0.587938
v 0.653282 0.382683 0.653282
v 0.693520 0.195090 0.693520
v 0.707107 0.000000 0.707107
v 0.693520 -0.195090 0.693520
v 0.653282 -0.382683 0.653282
v 0.587938 -0.555570 0.587938
v 0.500000 -0.707107 0.500001
v 0.392848 -0.831470 0.392848
v 0.270598 -0.923880 0.270599
v 0.137950 -0.980785 0.137950
v 0.000000 0.980785 0.195091
v -0.000000 0.923880 0.382684
v 0.000000 0.831470 0.555571
v -0.000000 0.707107 0.707107
v -0.000000 0.555570 0.831470
v -0.000000 0.382683 0.923880
v -0.000000 0.195090 0.980786
v -0.000000 0.000000 1.000001
v -0.000000 -0.195090 0.980786
v -0.000000 -0.382683 0.923880
v -0.000000 -0.555570 0.831470
v -0.000000 -0.707107 0.707107
v 0.000000 -0.831470 0.555571
v 0.000000 -0.923880 0.382684
v 0.000000 -0.980785 0.195091
v 0.000000 -1.000000 0.000000
v -0.000000 1.000000 0.000001
v -0.137950 0.980785 0.137950
v -0.270598 0.923880 0.270599
v -0.392848 0.831470 0.392848
v -0.500000 0.707107 0.500001
v -0.587938 0.555570 0.587938
v -0.653282 0.382683 0.653282
v -0.693520 0.195090 0.693520
v -0.707107 0.000000 0.707107
v -0.693520 -0.195090 0.693520
v -0.653282 -0.382683 0.653282
v -0.587938 -0.555570 0.587938
v -0.500000 -0.707107 0.500001
v -0.392848 -0.831470 0.392848
v -0.270598 -0.923880 0.270598
v -0.137950 -0.980785 0.137950
v -0.195091 0.980785 0.000000
v -0.382684 0.923880 0.000000
v -0.555571 0.831470 0.000000
v -0.707107 0.707107 0.000000
v -0.831470 0.555570 0.000000
v -0.923880 0.382683 0.000000
v -0.980786 0.195090 0.000000
v -1.000000 0.000000 0.000000
v -0.980786 -0.195090 0.000000
v -0.923880 -0.382683 0.000000
v -0.831470 -0.555570 0.000000
v -0.707107 -0.707107 0.000000
v -0.555570 -0.831470 0.000000
v -0.382684 -0.923880 0.000000
v -0.195090 -0.980785 0.000000
v -0.137950 0.980785 -0.137950
v -0.270598 0.923880 -0.270598
v -0.392848 0.831470 -0.392847
v -0.500000 0.707107 -0.500000
v -0.587938 0.555570 -0.587938
v -0.653282 0.382683 -0.653281
v -0.693520 0.195090 -0.693520
v -0.707107 0.000000 -0.707107
v -0.693520 -0.195090 -0.693520
v -0.653282 -0.382683 -0.653281
v -0.587938 -0.555570 -0.587938
v -0.500000 -0.707107 -0.500000
v -0.392848 -0.831470 -0.392847
v -0.270598 -0.923880 -0.270598
v -0.137950 -0.980785 -0.137949
v 0.000000 0.980785 -0.195090
v -0.000000 0.923880 -0.382683
v -0.000000 0.831470 -0.555570
v -0.000000 0.707107 -0.707107
v -0.000000 0.555570 -0.831470
v -0.000000 0.382683 -0.923880
v -0.000000 0.195090 -0.980785
v -0.000000 0.000000 -1.000000
v -0.000000 -0.195090 -0.980785
v -0.000000 -0.382683 -0.923880
v -0.000000 -0.555570 -0.831470
v -0.000000 -0.707107 -0.707107
v -0.000000 -0.831470 -0.555570
v -0.000000 -0.923880 -0.382683
vt 0.750000 0.312500
vt 0.625000 0.375000
vt 0.625000 0.312500
vt 0.750000 0.750000
vt 0.625000 0.812500
vt 0.625000 0.750000
vt 0.625000 0.250000
vt 0.750000 0.250000
vt 0.750000 0.687500
vt 0.625000 0.687500
vt 0.625000 0.187500
vt 0.750000 0.187500
vt 0.625000 0.625000
vt 0.750000 0.625000
vt 0.625000 0.125000
vt 0.750000 0.125000
vt 0.750000 0.562500
vt 0.625000 0.562500
vt 0.625000 0.062500
vt 0.750000 0.062500
vt 0.625000 0.500000
vt 0.750000 0.500000
vt 0.750000 0.937500
vt 0.687500 1.000000
vt 0.625000 0.937500
vt 0.687500 0.000000
vt 0.750000 0.437500
vt 0.625000 0.437500
vt 0.750000 0.875000
vt 0.625000 0.875000
vt 0.750000 0.375000
vt 0.750000 0.812500
vt 0.500000 0.437500
vt 0.500000 0.375000
vt 0.500000 0.812500
vt 0.500000 0.312500
vt 0.500000 0.750000
vt 0.500000 0.250000
vt 0.500000 0.687500
vt 0.500000 0.187500
vt 0.500000 0.625000
vt 0.500000 0.125000
vt 0.500000 0.562500
vt 0.500000 0.062500
vt 0.500000 0.500000
vt 0.562500 1.000000
vt 0.500000 0.937500
vt 0.562500 0.000000
vt 0.500000 0.875000
vt 0.375000 0.187500
vt 0.375000 0.125000
vt 0.375000 0.562500
vt 0.375000 0.062500
vt 0.375000 0.500000
vt 0.437499 1.000000
vt 0.375000 0.937500
vt 0.437500 0.000000
vt 0.375000 0.437500
vt 0.375000 0.875000
vt 0.375000 0.375000
vt 0.375000 0.812500
vt 0.375000 0.312500
vt 0.375000 0.750000
vt 0.375000 0.250000
vt 0.375000 0.687500
vt 0.375000 0.625000
vt 0.250000 0.812500
vt 0.250000 0.312500
vt 0.250000 0.750000
vt 0.250000 0.250000
vt 0.250000 0.687500
vt 0.250000 0.187500
vt 0.250000 0.625000
vt 0.250000 0.125000
vt 0.250000 0.562500
vt 0.250000 0.062500
vt 0.250000 0.500000
vt 0.312500 1.000000
vt 0.250000 0.937500
vt 0.312500 0.000000
vt 0.250000 0.437500
vt 0.250000 0.875000
vt 0.250000 0.375000
vt 0.125000 0.562500
vt 0.125000 0.125000
vt 0.125000 0.062500
vt 0.125000 0.500000
vt 0.187500 1.000000
vt 0.125000 0.937500
vt 0.187500 0.000000
vt 0.125000 0.437500
vt 0.125000 0.875000
vt 0.125000 0.375000
vt 0.125000 0.812500
vt 0.125000 0.312500
vt 0.125000 0.750000
vt 0.125000 0.250000
vt 0.125000 0.687500
vt 0.125000 0.187500
vt 0.125000 0.625000
vt 0.000000 0.312500
vt 0.000000 0.812500
vt 0.000000 0.750000
vt 0.000000 0.250000
vt 0.000000 0.687500
vt 0.000000 0.187500
vt 0.000000 0.625000
vt 0.000000 0.125000
vt 0.000000 0.562500
vt 0.000000 0.062500
vt 0.000000 0.500000
vt 0.062500 1.000000
vt 0.000000 0.937500
vt 0.062500 0.000000
vt 0.000000 0.437500
vt 0.000000 0.875000
vt 0.000000 0.375000
vt 1.000000 0.062500
vt 0.875000 0.125000
vt 0.875000 0.062500
vt 1.000000 0.562500
vt 0.875000 0.500000
vt 1.000000 0.500000
vt 1.000000 0.937500
vt 0.937500 1.000000
vt 0.875000 0.937500
vt 0.937500 0.000000
vt 1.000000 0.437500
vt 0.875000 0.437500
vt 0.875000 0.875000
vt 1.000000 0.875000
vt 0.875000 0.375000
vt 1.000000 0.375000
vt 0.875000 0.812500
vt 1.000000 0.812500
vt 1.000000 0.312500
vt 0.875000 0.312500
vt 0.875000 0.750000
vt 1.000000 0.750000
vt 0.875000 0.250000
vt 1.000000 0.250000
vt 1.000000 0.687500
vt 0.875000 0.687500
vt 0.875000 0.187500
vt 1.000000 0.187500
vt 0.875000 0.625000
vt 1.000000 0.625000
vt 1.000000 0.125000
vt 0.875000 0.562500
vt 0.812500 1.000000
vt 0.812500 0.000000
vn 0.3431 -0.4428 -0.8284
vn 0.2541 0.7476 -0.6136
vn 0.3049 -0.6042 -0.7362
vn 0.3049 0.6042 -0.7362
vn 0.2541 -0.7476 -0.6136
vn 0.3431 0.4428 -0.8284
vn 0.1916 -0.8656 -0.4627
vn 0.3685 0.2699 -0.8896
vn 0.1194 -0.9501 -0.2882
vn 0.3811 0.0906 -0.9201
vn 0.0406 0.9944 -0.0979
vn 0.0406 -0.9944 -0.0979
vn 0.3811 -0.0906 -0.9201
vn 0.1194 0.9501 -0.2882
vn 0.3685 -0.2699 -0.8896
vn 0.1916 0.8656 -0.4627
vn 0.8896 -0.2699 -0.3685
vn 0.4627 0.8656 -0.1916
vn 0.8284 -0.4428 -0.3431
vn 0.6136 0.7476 -0.2541
vn 0.7362 -0.6042 -0.3049
vn 0.7362 0.6042 -0.3049
vn 0.6136 -0.7476 -0.2541
vn 0.8284 0.4428 -0.3431
vn 0.4627 -0.8656 -0.1916
vn 0.8896 0.2699 -0.3685
vn 0.2882 -0.9501 -0.1194
vn 0.9201 0.0906 -0.3811
vn 0.0979 0.9944 -0.0406
vn 0.0979 -0.9944 -0.0406
vn 0.9201 -0.0906 -0.3811
vn 0.2882 0.9501 -0.1194
vn 0.4627 -0.8656 0.1916
vn 0.8896 0.2699 0.3685
vn 0.2882 -0.9501 0.1194
vn 0.9201 0.0906 0.3811
vn 0.0979 0.9944 0.0406
vn 0.0979 -0.9944 0.0406
vn 0.9201 -0.0906 0.3811
vn 0.2882 0.9501 0.1194
vn 0.8896 -0.2699 0.3685
vn 0.4627 0.8656 0.1916
vn 0.8284 -0.4428 0.3431
vn 0.6136 0.7476 0.2541
vn 0.7362 -0.6042 0.3049
vn 0.7362 0.6042 0.3049
vn 0.6136 -0.7476 0.2541
vn 0.8284 0.4428 0.3431
vn 0.1916 0.8656 0.4627
vn 0.3431 -0.4428 0.8284
vn 0.2541 0.7476 0.6136
vn 0.3049 -0.6042 0.7362
vn 0.3049 0.6042 0.7362
vn 0.2541 -0.7476 0.6136
vn 0.3431 0.4428 0.8284
vn 0.1916 -0.8656 0.4627
vn 0.3685 0.2699 0.8896
vn 0.1194 -0.9501 0.2882
vn 0.3811 0.0906 0.9201
vn 0.0406 0.9944 0.0979
vn 0.0406 -0.9944 0.0979
vn 0.3811 -0.0906 0.9201
vn 0.1194 0.9501 0.2882
vn 0.3685 -0.2699 0.8896
vn -0.3685 0.2699 0.8896
vn -0.1194 -0.9501 0.2882
vn -0.3811 0.0906 0.9201
vn -0.0406 0.9944 0.0979
vn -0.0406 -0.9944 0.0979
vn -0.3811 -0.0906 0.9201
vn -0.1194 0.9501 0.2882
vn -0.3685 -0.2699 0.8896
vn -0.1916 0.8656 0.4627
vn -0.3431 -0.4428 0.8284
vn -0.2541 0.7476 0.6136
vn -0.3049 -0.6042 0.7362
vn -0.3049 0.6042 0.7362
vn -0.2541 -0.7476 0.6136
vn -0.3431 0.4428 0.8284
vn -0.1916 -0.8656 0.4627
vn -0.8284 -0.4428 0.3431
vn -0.6136 0.7476 0.2541
vn -0.7362 -0.6042 0.3049
vn -0.7362 0.6042 0.3049
vn -0.6136 -0.7476 0.2541
vn -0.8284 0.4428 0.3431
vn -0.4627 -0.8656 0.1916
vn -0.8896 0.2699 0.3685
vn -0.2882 -0.9501 0.1194
vn -0.9201 0.0906 0.3811
vn -0.0979 0.9944 0.0406
vn -0.0979 -0.9944 0.0406
vn -0.9201 -0.0906 0.3811
vn -0.2882 0.9501 0.1194
vn -0.8896 -0.2699 0.3685
vn -0.4627 0.8656 0.1916
vn -0.2882 -0.9501 -0.1194
vn -0.9201 0.0906 -0.3811
vn -0.0979 0.9944 -0.0406
vn -0.0979 -0.9944 -0.0406
vn -0.9201 -0.0906 -0.3811
vn -0.2882 0.9501 -0.1194
vn -0.8896 -0.2699 -0.3685
vn -0.4627 0.8656 -0.1916
vn -0.8284 -0.4428 -0.3431
vn -0.6136 0.7476 -0.2541
vn -0.7362 -0.6042 -0.3049
vn -0.7362 0.6042 -0.3049
vn -0.6136 -0.7476 -0.2541
vn -0.8284 0.4428 -0.3431
vn -0.4627 -0.8656 -0.1916
vn -0.8896 0.2699 -0.3685
vn -0.2541 0.7476 -0.6136
vn -0.3049 -0.6042 -0.7362
vn -0.3049 0.6042 -0.7362
vn -0.2541 -0.7476 -0.6136
vn -0.3431 0.4428 -0.8284
vn -0.1916 -0.8656 -0.4627
vn -0.3685 0.2699 -0.8896
vn -0.1194 -0.9501 -0.2882
vn -0.3811 0.0906 -0.9201
vn -0.0406 0.9944 -0.0979
vn -0.0406 -0.9944 -0.0979
vn -0.3811 -0.0906 -0.9201
vn -0.1194 0.9501 -0.2882
vn -0.3685 -0.2699 -0.8896
vn -0.1916 0.8656 -0.4627
vn -0.3431 -0.4428 -0.8284
usemtl None
s off
f 119/1/1 11/2/1 12/3/1
f 112/4/2 4/5/2 5/6/2
f 119/1/3 13/7/3 120/8/3
f 113/9/4 5/6/4 6/10/4
f 120/8/5 14/11/5 121/12/5
f 113/9/6 7/13/6 114/14/6
f 121/12/7 15/15/7 122/16/7
f 115/17/8 7/13/8 8/18/8
f 122/16/9 16/19/9 1/20/9
f 115/17/10 9/21/10 116/22/10
f 109/23/11 63/24/11 2/25/11
f 62/26/12 1/20/12 16/19/12
f 117/27/13 9/21/13 10/28/13
f 110/29/14 2/25/14 3/30/14
f 117/27/15 11/2/15 118/31/15
f 110/29/16 4/5/16 111/32/16
f 11/2/17 25/33/17 26/34/17
f 3/30/18 19/35/18 4/5/18
f 11/2/19 27/36/19 12/3/19
f 4/5/20 20/37/20 5/6/20
f 12/3/21 28/38/21 13/7/21
f 6/10/22 20/37/22 21/39/22
f 14/11/23 28/38/23 29/40/23
f 6/10/24 22/41/24 7/13/24
f 14/11/25 30/42/25 15/15/25
f 7/13/26 23/43/26 8/18/26
f 15/15/27 31/44/27 16/19/27
f 9/21/28 23/43/28 24/45/28
f 2/25/29 63/46/29 17/47/29
f 62/48/30 16/19/30 31/44/30
f 9/21/31 25/33/31 10/28/31
f 2/25/32 18/49/32 3/30/32
f 30/42/33 44/50/33 45/51/33
f 22/41/34 38/52/34 23/43/34
f 30/42/35 46/53/35 31/44/35
f 23/43/36 39/54/36 24/45/36
f 17/47/37 63/55/37 32/56/37
f 62/57/38 31/44/38 46/53/38
f 25/33/39 39/54/39 40/58/39
f 17/47/40 33/59/40 18/49/40
f 25/33/41 41/60/41 26/34/41
f 18/49/42 34/61/42 19/35/42
f 26/34/43 42/62/43 27/36/43
f 20/37/44 34/61/44 35/63/44
f 27/36/45 43/64/45 28/38/45
f 21/39/46 35/63/46 36/65/46
f 29/40/47 43/64/47 44/50/47
f 22/41/48 36/65/48 37/66/48
f 33/59/49 49/67/49 34/61/49
f 41/60/50 57/68/50 42/62/50
f 35/63/51 49/67/51 50/69/51
f 43/64/52 57/68/52 58/70/52
f 35/63/53 51/71/53 36/65/53
f 43/64/54 59/72/54 44/50/54
f 37/66/55 51/71/55 52/73/55
f 45/51/56 59/72/56 60/74/56
f 37/66/57 53/75/57 38/52/57
f 46/53/58 60/74/58 61/76/58
f 38/52/59 54/77/59 39/54/59
f 32/56/60 63/78/60 47/79/60
f 62/80/61 46/53/61 61/76/61
f 39/54/62 55/81/62 40/58/62
f 33/59/63 47/79/63 48/82/63
f 40/58/64 56/83/64 41/60/64
f 52/73/65 70/84/65 53/75/65
f 61/76/66 77/85/66 78/86/66
f 53/75/67 71/87/67 54/77/67
f 47/79/68 63/88/68 64/89/68
f 62/90/69 61/76/69 78/86/69
f 55/81/70 71/87/70 72/91/70
f 47/79/71 65/92/71 48/82/71
f 56/83/72 72/91/72 73/93/72
f 48/82/73 66/94/73 49/67/73
f 56/83/74 74/95/74 57/68/74
f 50/69/75 66/94/75 67/96/75
f 58/70/76 74/95/76 75/97/76
f 50/69/77 68/98/77 51/71/77
f 58/70/78 76/99/78 59/72/78
f 52/73/79 68/98/79 69/100/79
f 60/74/80 76/99/80 77/85/80
f 73/93/81 89/101/81 74/95/81
f 67/96/82 81/102/82 82/103/82
f 75/97/83 89/101/83 90/104/83
f 67/96/84 83/105/84 68/98/84
f 75/97/85 91/106/85 76/99/85
f 69/100/86 83/105/86 84/107/86
f 77/85/87 91/106/87 92/108/87
f 69/100/88 85/109/88 70/84/88
f 78/86/89 92/108/89 93/110/89
f 71/87/90 85/109/90 86/111/90
f 64/89/91 63/112/91 79/113/91
f 62/114/92 78/86/92 93/110/92
f 71/87/93 87/115/93 72/91/93
f 64/89/94 80/116/94 65/92/94
f 72/91/95 88/117/95 73/93/95
f 65/92/96 81/102/96 66/94/96
f 93/118/97 107/119/97 108/120/97
f 85/121/98 101/122/98 86/123/98
f 79/124/99 63/125/99 94/126/99
f 62/127/100 93/118/100 108/120/100
f 87/128/101 101/122/101 102/129/101
f 79/124/102 95/130/102 80/131/102
f 87/128/103 103/132/103 88/133/103
f 80/131/104 96/134/104 81/135/104
f 89/136/105 103/132/105 104/137/105
f 81/135/106 97/138/106 82/139/106
f 89/136/107 105/140/107 90/141/107
f 83/142/108 97/138/108 98/143/108
f 90/141/109 106/144/109 91/145/109
f 83/142/110 99/146/110 84/147/110
f 92/148/111 106/144/111 107/119/111
f 84/147/112 100/149/112 85/121/112
f 97/138/113 111/32/113 112/4/113
f 105/140/114 119/1/114 120/8/114
f 97/138/115 113/9/115 98/143/115
f 105/140/116 121/12/116 106/144/116
f 98/143/117 114/14/117 99/146/117
f 107/119/118 121/12/118 122/16/118
f 100/149/119 114/14/119 115/17/119
f 108/120/120 122/16/120 1/20/120
f 100/149/121 116/22/121 101/122/121
f 94/126/122 63/150/122 109/23/122
f 62/151/123 108/120/123 1/20/123
f 101/122/124 117/27/124 102/129/124
f 94/126/125 110/29/125 95/130/125
f 102/129/126 118/31/126 103/132/126
f 95/130/127 111/32/127 96/134/127
f 104/137/128 118/31/128 119/1/128
f 119/1/1 118/31/1 11/2/1
f 112/4/2 111/32/2 4/5/2
f 119/1/3 12/3/3 13/7/3
f 113/9/4 112/4/4 5/6/4
f 120/8/5 13/7/5 14/11/5
f 113/9/6 6/10/6 7/13/6
f 121/12/7 14/11/7 15/15/7
f 115/17/8 114/14/8 7/13/8
f 122/16/9 15/15/9 16/19/9
f 115/17/10 8/18/10 9/21/10
f 117/27/13 116/22/13 9/21/13
f 110/29/14 109/23/14 2/25/14
f 117/27/15 10/28/15 11/2/15
f 110/29/16 3/30/16 4/5/16
f 11/2/17 10/28/17 25/33/17
f 3/30/18 18/49/18 19/35/18
f 11/2/19 26/34/19 27/36/19
f 4/5/20 19/35/20 20/37/20
f 12/3/21 27/36/21 28/38/21
f 6/10/22 5/6/22 20/37/22
f 14/11/23 13/7/23 28/38/23
f 6/10/24 21/39/24 22/41/24
f 14/11/25 29/40/25 30/42/25
f 7/13/26 22/41/26 23/43/26
f 15/15/27 30/42/27 31/44/27
f 9/21/28 8/18/28 23/43/28
f 9/21/31 24/45/31 25/33/31
f 2/25/32 17/47/32 18/49/32
f 30/42/33 29/40/33 44/50/33
f 22/41/34 37/66/34 38/52/34
f 30/42/35 45/51/35 46/53/35
f 23/43/36 38/52/36 39/54/36
f 25/33/39 24/45/39 39/54/39
f 17/47/40 32/56/40 33/59/40
f 25/33/41 40/58/41 41/60/41
f 18/49/42 33/59/42 34/61/42
f 26/34/43 41/60/43 42/62/43
f 20/37/44 19/35/44 34/61/44
f 27/36/45 42/62/45 43/64/45
f 21/39/46 20/37/46 35/63/46
f 29/40/47 28/38/47 43/64/47
f 22/41/48 21/39/48 36/65/48
f 33/59/49 48/82/49 49/67/49
f 41/60/50 56/83/50 57/68/50
f 35/63/51 34/61/51 49/67/51
f 43/64/52 42/62/52 57/68/52
f 35/63/53 50/69/53 51/71/53
f 43/64/54 58/70/54 59/72/54
f 37/66/55 36/65/55 51/71/55
f 45/51/56 44/50/56 59/72/56
f 37/66/57 52/73/57 53/75/57
f 46/53/58 45/51/58 60/74/58
f 38/52/59 53/75/59 54/77/59
f 39/54/62 54/77/62 55/81/62
f 33/59/63 32/56/63 47/79/63
f 40/58/64 55/81/64 56/83/64
f 52/73/65 69/100/65 70/84/65
f 61/76/66 60/74/66 77/85/66
f 53/75/67 70/84/67 71/87/67
f 55/81/70 54/77/70 71/87/70
f 47/79/71 64/89/71 65/92/71
f 56/83/72 55/81/72 72/91/72
f 48/82/73 65/92/73 66/94/73
f 56/83/74 73/93/74 74/95/74
f 50/69/75 49/67/75 66/94/75
f 58/70/76 57/68/76 74/95/76
f 50/69/77 67/96/77 68/98/77
f 58/70/78 75/97/78 76/99/78
f 52/73/79 51/71/79 68/98/79
f 60/74/80 59/72/80 76/99/80
f 73/93/81 88/117/81 89/101/81
f 67/96/82 66/94/82 81/102/82
f 75/97/83 74/95/83 89/101/83
f 67/96/84 82/103/84 83/105/84
f 75/97/85 90/104/85 91/106/85
f 69/100/86 68/98/86 83/105/86
f 77/85/87 76/99/87 91/106/87
f 69/100/88 84/107/88 85/109/88
f 78/86/89 77/85/89 92/108/89
f 71/87/90 70/84/90 85/109/90
f 71/87/93 86/111/93 87/115/93
f 64/89/94 79/113/94 80/116/94
f 72/91/95 87/115/95 88/117/95
f 65/92/96 80/116/96 81/102/96
f 93/118/97 92/148/97 107/119/97
f 85/121/98 100/149/98 101/122/98
f 87/128/101 86/123/101 101/122/101
f 79/124/102 94/126/102 95/130/102
f 87/128/103 102/129/103 103/132/103
f 80/131/104 95/130/104 96/134/104
f 89/136/105 88/133/105 103/132/105
f 81/135/106 96/134/106 97/138/106
f 89/136/107 104/137/107 105/140/107
f 83/142/108 82/139/108 97/138/108
f 90/141/109 105/140/109 106/144/109
f 83/142/110 98/143/110 99/146/110
f 92/148/111 91/145/111 106/144/111
f 84/147/112 99/146/112 100/149/112
f 97/138/113 96/134/113 111/32/113
f 105/140/114 104/137/114 119/1/114
f 97/138/115 112/4/115 113/9/115
f 105/140/116 120/8/116 121/12/116
f 98/143/117 113/9/117 114/14/117
f 107/119/118 106/144/118 121/12/118
f 100/149/119 99/146/119 114/14/119
f 108/120/120 107/119/120 122/16/120
f 100/149/121 115/17/121 116/22/121
f 101/122/124 116/22/124 117/27/124
f 94/126/125 109/23/125 110/29/125
f 102/129/126 117/27/126 118/31/126
f 95/130/127 110/29/127 111/32/127
f 104/137/128 103/132/128 118/31/128
